<?xml version="1.0" encoding="UTF-8" standalone="no"?>
<!-- Created with Inkscape (http://www.inkscape.org/) -->

<svg
   version="1.1"
   id="svg2"
   width="793.70135"
   height="1122.52"
   viewBox="0 0 793.70135 1122.52"
   sodipodi:docname="sirkula logo.ai"
   xmlns:inkscape="http://www.inkscape.org/namespaces/inkscape"
   xmlns:sodipodi="http://sodipodi.sourceforge.net/DTD/sodipodi-0.dtd"
   xmlns="http://www.w3.org/2000/svg"
   xmlns:svg="http://www.w3.org/2000/svg">
  <defs
     id="defs6">
    <clipPath
       clipPathUnits="userSpaceOnUse"
       id="clipPath16">
      <path
         d="M 0,841.89 H 595.276 V 0 H 0 Z"
         id="path14" />
    </clipPath>
  </defs>
  <sodipodi:namedview
     id="namedview4"
     pagecolor="#ffffff"
     bordercolor="#000000"
     borderopacity="0.25"
     inkscape:showpageshadow="2"
     inkscape:pageopacity="0.0"
     inkscape:pagecheckerboard="0"
     inkscape:deskcolor="#d1d1d1" />
  <g
     id="g8"
     inkscape:groupmode="layer"
     inkscape:label="sirkula logo"
     transform="matrix(1.3333333,0,0,-1.3333333,0,1122.52)">
    <g
       id="g10">
      <g
         id="g12"
         clip-path="url(#clipPath16)">
        <g
           id="g18"
           transform="translate(270.8125,222.5198)">
          <path
             d="m 0,0 c -63.217,0 -114.642,50.291 -114.642,112.106 v 21.84 c 0,4.691 1.867,9.102 5.255,12.421 l 31.595,30.89 c 5.235,5.122 12.735,6.584 19.578,3.81 6.742,-2.728 11.094,-9.101 11.094,-16.234 0,-54.481 45.326,-98.802 101.036,-98.802 13.891,0 27.144,2.758 39.209,7.741 5.095,11.794 7.912,24.747 7.912,38.334 v 13.879 c 0,37.685 -21.418,71.553 -55.896,88.392 l -96.626,47.185 c -39.122,19.103 -63.423,57.534 -63.423,100.293 v 40.244 c 0,44.496 26.653,83.026 65.164,101.118 18.501,37.652 57.895,63.712 103.395,63.712 63.482,0 114.907,-50.288 114.907,-112.103 v -21.84 c 0,-4.694 -1.867,-9.108 -5.261,-12.424 l -31.589,-30.887 c -5.235,-5.122 -12.735,-6.577 -19.577,-3.81 -6.743,2.729 -11.094,9.101 -11.094,16.234 0,54.481 -45.327,98.802 -101.037,98.802 -14.011,0 -27.35,-2.777 -39.481,-7.792 -5.088,-11.778 -7.898,-24.715 -7.898,-38.283 v -40.244 c 0,-37.682 21.417,-71.553 55.896,-88.392 l 96.618,-47.185 c 39.122,-19.102 63.423,-57.531 63.423,-100.293 V 164.833 C 168.558,120.34 141.912,81.814 103.402,63.719 84.9,26.06 45.506,0 0,0"
             style="fill:#4e4e4e;fill-opacity:1;fill-rule:nonzero;stroke:none"
             id="path20" />
        </g>
        <g
           id="g22"
           transform="translate(205.636,391.6435)">
          <path
             d="M 0,0 C -0.903,0 -1.98,-0.283 -2.996,-1.273 L -34.585,-32.16 c -0.823,-0.805 -1.275,-1.877 -1.275,-3.017 v -21.841 c 0,-54.481 45.327,-98.801 101.037,-98.801 34.644,0 65.269,17.14 83.478,43.2 -9.433,-2.466 -19.345,-3.778 -29.562,-3.778 -63.217,0 -114.642,50.291 -114.642,112.106 0,2.573 -1.88,3.615 -2.691,3.943 C 1.388,-0.198 0.757,0 0,0"
             style="fill:#3a8caa;fill-opacity:1;fill-rule:nonzero;stroke:none"
             id="path24" />
        </g>
        <g
           id="g26"
           transform="translate(213.6809,706.2024)">
          <path
             d="m 0,0 c -26.679,-17.813 -44.171,-47.738 -44.171,-81.583 v -40.245 c 0,-37.685 21.418,-71.553 55.896,-88.391 l 96.626,-47.186 c 39.122,-19.102 63.422,-57.534 63.422,-100.292 v -13.88 c 0,-9.991 -1.341,-19.68 -3.859,-28.905 26.646,17.81 44.17,47.754 44.17,81.632 v 13.88 c 0,37.684 -21.417,71.556 -55.889,88.391 l -96.625,47.186 c -39.122,19.105 -63.423,57.534 -63.423,100.292 v 40.245 C -3.853,-18.881 -2.518,-9.212 0,0"
             style="fill:#ffc74e;fill-opacity:1;fill-rule:nonzero;stroke:none"
             id="path28" />
        </g>
        <g
           id="g30"
           transform="translate(270.5468,736.7251)">
          <path
             d="m 0,0 c 63.483,0 114.908,-50.291 114.908,-112.106 0,-2.573 1.88,-3.615 2.69,-3.943 0.817,-0.335 2.89,-0.9 4.757,0.925 l 31.588,30.887 c 0.824,0.805 1.276,1.877 1.276,3.017 v 21.841 c 0,54.478 -45.327,98.798 -101.037,98.798 -34.804,0 -65.489,-17.134 -83.718,-43.19 C -20.109,-1.312 -10.211,0 0,0"
             style="fill:#dcd1b4;fill-opacity:1;fill-rule:nonzero;stroke:none"
             id="path32" />
        </g>
        <g
           id="g34"
           transform="translate(77.0714,106.9386)">
          <path
             d="m 0,0 c -17.907,4.723 -24.783,9.266 -24.783,19.802 0,11.264 9.769,18.347 23.516,18.347 9.945,0 16.821,-2.905 24.959,-9.084 l 3.438,4.178 c -8.865,7.086 -17.367,10.536 -28.579,10.536 -16.639,0 -29.664,-9.808 -29.664,-23.797 0,-13.258 8.137,-19.617 28.039,-24.885 20.435,-5.633 26.226,-10.356 26.226,-23.252 0,-13.444 -10.854,-20.709 -25.323,-20.709 -12.661,0 -20.441,3.815 -28.761,10.353 l -3.62,-3.995 c 8.144,-6.723 17.549,-11.992 32.381,-11.992 18.447,0 31.654,10.539 31.654,26.523 C 29.483,-12.171 21.163,-5.813 0,0"
             style="fill:#4e4e4e;fill-opacity:1;fill-rule:nonzero;stroke:none"
             id="path36" />
        </g>
        <g
           id="g38"
           transform="translate(139.8331,187.5966)">
          <path
             d="m 0,0 c -3.074,0 -5.069,-2.363 -5.069,-4.906 0,-2.725 1.995,-5.085 5.069,-5.085 3.433,0 5.245,2.36 5.245,5.085 C 5.245,-2.363 3.433,0 0,0"
             style="fill:#4e4e4e;fill-opacity:1;fill-rule:nonzero;stroke:none"
             id="path40" />
        </g>
        <path
           d="m 136.935,54.259 h 6.155 v 94.461 h -6.155 z"
           style="fill:#4e4e4e;fill-opacity:1;fill-rule:nonzero;stroke:none"
           id="path42" />
        <g
           id="g44"
           transform="translate(189.7516,126.3783)">
          <path
             d="m 0,0 -0.364,22.342 h -5.245 v -94.461 h 6.154 v 60.31 c 5.604,20.344 13.02,30.518 26.949,30.518 3.074,0 5.966,-0.362 8.319,-1.09 l 1.268,5.633 C 34.91,23.794 31.835,24.34 27.675,24.34 13.565,24.34 5.063,16.349 0,0"
             style="fill:#4e4e4e;fill-opacity:1;fill-rule:nonzero;stroke:none"
             id="path46" />
        </g>
        <g
           id="g48"
           transform="translate(307.8585,148.7203)">
          <path
             d="M 0,0 H -7.774 L -50.64,-42.872 -3.256,-94.461 h 7.598 l -47.39,51.955 z"
             style="fill:#4e4e4e;fill-opacity:1;fill-rule:nonzero;stroke:none"
             id="path50" />
        </g>
        <g
           id="g52"
           transform="translate(392.3228,79.5087)">
          <path
             d="m 0,0 c -7.052,-12.533 -16.458,-21.434 -30.205,-21.434 -13.928,0 -21.702,7.265 -21.702,23.797 v 66.849 h -6.155 V 1.818 c 0,-18.712 9.951,-28.886 26.772,-28.886 15.554,0 25.863,9.084 32.018,20.165 L 0.904,-25.25 H 6.149 V 69.212 H 0 Z"
             style="fill:#4e4e4e;fill-opacity:1;fill-rule:nonzero;stroke:none"
             id="path54" />
        </g>
        <g
           id="g56"
           transform="translate(538.6509,76.6037)">
          <path
             d="m 0,0 c -6.149,-11.626 -15.196,-18.529 -28.943,-18.529 -13.747,0 -22.425,8.173 -22.425,22.524 0,16.532 12.117,24.705 32.012,24.705 H 0 Z m 6.149,-2.18 v 47.229 c 0,19.074 -8.684,29.065 -29.119,29.065 -9.587,0 -18.271,-2.36 -27.676,-6.355 l 1.625,-5.088 c 9.229,3.632 17.549,5.813 25.688,5.813 C -5.791,68.484 0,60.49 0,44.507 V 33.968 h -20.623 c -22.424,0 -37.257,-10.536 -37.257,-30.155 0,-16.895 10.672,-27.976 28.579,-27.976 13.384,0 23.334,5.813 30.205,17.077 0.363,-10.353 4.342,-14.896 11.758,-17.077 l 1.443,4.361 c -5.421,2.18 -7.956,5.45 -7.956,17.622"
             style="fill:#4e4e4e;fill-opacity:1;fill-rule:nonzero;stroke:none"
             id="path58" />
        </g>
        <g
           id="g60"
           transform="translate(249.9786,193.2657)">
          <path
             d="M 0,0 V -139.007 H 6.154 V 0.908 Z"
             style="fill:#4e4e4e;fill-opacity:1;fill-rule:nonzero;stroke:none"
             id="path62" />
        </g>
        <g
           id="g64"
           transform="translate(460.5172,59.527)">
          <path
             d="m 0,0 c -2.171,-0.908 -4.523,-1.453 -7.058,-1.453 -5.604,0 -8.678,3.451 -8.678,10.354 v 125.745 l -6.154,-0.907 V 8.721 c 0,-11.084 6.154,-15.807 14.656,-15.807 3.251,0 6.689,0.91 9.041,2.001 z"
             style="fill:#4e4e4e;fill-opacity:1;fill-rule:nonzero;stroke:none"
             id="path66" />
        </g>
      </g>
    </g>
  </g>
</svg>
